<svg xmlns="http://www.w3.org/2000/svg" version="1.1" xmlns:xlink="http://www.w3.org/1999/xlink" xmlns:svgjs="http://svgjs.dev/svgjs" width="2000" height="2250" viewBox="0 0 2000 2250"><g transform="matrix(1,0,0,1,3.410605131648481e-13,0)"><svg viewBox="0 0 320 360" data-background-color="#f3e8ff" preserveAspectRatio="xMidYMid meet" height="2250" width="2000" xmlns="http://www.w3.org/2000/svg" xmlns:xlink="http://www.w3.org/1999/xlink"><g id="tight-bounds" transform="matrix(1,0,0,1,0,0)"><svg viewBox="0 0 320 360" height="360" width="320"><g><svg></svg></g><g><svg viewBox="0 0 320 360" height="360" width="320"><g><path xmlns="http://www.w3.org/2000/svg" d="M320 204.145c-0.08-8.44-5.414-15.128-5.494-23.568-0.04-8.44 5.215-18.631 5.136-27.071-2.667-8.002-9.833-12.7-12.501-20.702-2.667-8.002-0.836-19.348-3.463-27.35-5.016-6.808-13.297-9.037-18.274-15.805-5.016-6.808-6.768-18.154-11.744-24.921-6.847-4.897-15.407-4.499-22.294-9.396-6.847-4.897-12.023-15.168-18.91-20.065-8.042-2.548-16.044 0.518-24.086-2.07-8.042-2.548-16.123-10.709-24.165-13.257-8.44 0.08-15.128 5.414-23.568 5.494-8.44 0.04-18.631-5.215-27.071-5.135-8.002 2.667-12.7 9.833-20.702 12.5-8.002 2.667-19.348 0.836-27.35 3.504-6.808 5.016-9.037 13.297-15.805 18.273-6.808 5.016-18.154 6.768-24.922 11.784-4.897 6.847-4.499 15.407-9.395 22.294-4.897 6.847-15.168 12.023-20.065 18.91-2.548 8.042 0.478 16.044-2.07 24.086-2.548 8.042-10.709 16.123-13.257 24.165 0.04 8.44 5.414 15.128 5.494 23.568 0.04 8.44-5.215 18.631-5.136 27.071 2.667 8.002 9.833 12.7 12.501 20.702 2.667 8.002 0.836 19.348 3.503 27.35 5.016 6.808 13.297 9.037 18.273 15.845 5.016 6.808 6.768 18.154 11.745 24.921 6.847 4.897 15.407 4.499 22.294 9.396 6.847 4.897 12.023 15.168 18.91 20.065 8.042 2.548 16.044-0.478 24.086 2.07 8.042 2.548 16.123 10.709 24.165 13.257 8.44-0.08 15.128-5.414 23.568-5.494 8.44-0.04 18.631 5.215 27.071 5.135 8.002-2.667 12.7-9.833 20.702-12.5 8.002-2.667 19.348-0.836 27.35-3.504 6.808-5.016 9.037-13.297 15.845-18.273 6.808-5.016 18.154-6.768 24.921-11.744 4.897-6.847 4.499-15.407 9.396-22.294 4.897-6.847 15.168-12.023 20.064-18.91 2.548-8.042-0.478-16.044 2.071-24.086 2.468-8.121 10.63-16.203 13.177-24.245zM305.987 227.395c-3.623 7.126-12.501 13.456-16.164 20.582-3.623 7.126-2.03 15.088-5.653 22.215-5.653 5.653-16.044 8.918-21.737 14.57-5.653 5.653-6.569 13.735-12.261 19.388-7.126 3.623-18.034 3.503-25.161 7.166-7.126 3.623-10.51 11.028-17.636 14.651-7.922 1.234-18.233-2.229-26.156-0.996-7.922 1.234-13.416 7.246-21.299 8.48-7.922-1.234-16.641-7.763-24.563-8.997-7.922-1.274-14.969 2.747-22.891 1.473-7.126-3.623-13.456-12.54-20.582-16.163-7.126-3.623-15.088-2.03-22.255-5.654-5.653-5.653-8.918-16.044-14.571-21.736-5.653-5.653-13.735-6.609-19.387-12.262-3.623-7.126-3.503-18.034-7.166-25.161-3.623-7.126-11.028-10.51-14.651-17.636-1.234-7.922 2.229-18.233 0.995-26.156-1.274-7.922-7.246-13.416-8.479-21.298 1.274-7.922 7.763-16.641 8.997-24.564 1.234-7.922-2.747-14.969-1.473-22.891 3.623-7.126 12.54-13.456 16.163-20.582 3.623-7.126 2.03-15.088 5.653-22.254 5.653-5.653 16.044-8.918 21.737-14.571 5.653-5.653 6.609-13.735 12.262-19.388 7.126-3.623 18.034-3.503 25.16-7.166 7.126-3.623 10.51-11.028 17.637-14.651 7.922-1.234 18.233 2.229 26.155 0.996 7.922-1.234 13.416-7.246 21.299-8.48 7.922 1.234 16.641 7.763 24.564 8.997 7.922 1.274 14.969-2.747 22.891-1.473 7.126 3.623 13.456 12.54 20.582 16.163 7.126 3.623 15.088 2.03 22.254 5.654 5.653 5.653 8.918 16.044 14.571 21.736 5.653 5.653 13.735 6.609 19.388 12.262 3.623 7.126 3.503 18.034 7.166 25.161 3.623 7.126 11.028 10.51 14.65 17.636 1.274 7.922-2.229 18.233-0.995 26.156 1.234 7.922 7.246 13.416 8.48 21.298-1.234 7.922-7.763 16.641-8.997 24.564-1.234 7.922 2.747 15.009 1.473 22.931z" fill="#6b21a8" fill-rule="nonzero" stroke="none" stroke-width="1" stroke-linecap="butt" stroke-linejoin="miter" stroke-miterlimit="10" stroke-dasharray="" stroke-dashoffset="0" font-family="none" font-weight="none" font-size="none" text-anchor="none" style="mix-blend-mode: normal" data-fill-palette-color="tertiary"></path></g><g transform="matrix(1,0,0,1,61.098999999999975,81.09899999999998)"><svg viewBox="0 0 197.80200000000005 197.80200000000005" height="197.80200000000005" width="197.80200000000005"><g><svg viewBox="0 0 197.80200000000005 197.80200000000005" height="197.80200000000005" width="197.80200000000005"><g><svg viewBox="0 0 197.80200000000005 197.80200000000005" height="197.80200000000005" width="197.80200000000005"><g id="textblocktransform"><svg viewBox="0 0 197.80200000000005 197.80200000000005" height="197.80200000000005" width="197.80200000000005" id="textblock"><g><svg viewBox="0 0 197.80200000000005 197.80200000000005" height="197.80200000000005" width="197.80200000000005"><g transform="matrix(1,0,0,1,40.62302686155772,40.62302686155772)"><svg viewBox="0 0 116.55594627688461 116.55594627688461" height="116.55594627688461" width="116.55594627688461"><g><circle r="58" cx="58.277973138442306" cy="58.277973138442306" fill="#5e3fdb" data-fill-palette-color="accent"></circle><svg xmlns="http://www.w3.org/2000/svg" xmlns:xlink="http://www.w3.org/1999/xlink" version="1.1" x="17.48339194153269" y="17.48339194153269" viewBox="20 24 60 56" enable-background="new 0 0 100 100" xml:space="preserve" height="81.58916239381924" width="81.58916239381924" class="icon-o-0" data-fill-palette-color="quaternary" id="o-0"><path d="M79 50h-9V37h5c0.553 0 1-0.448 1-1v-6c0-3.309-2.691-6-6-6H36c-3.309 0-6 2.691-6 6v33h-9c-0.553 0-1 0.448-1 1v6c0 3.309 2.691 6 6 6h32v3c0 0.552 0.447 1 1 1h20c0.553 0 1-0.448 1-1V51C80 50.448 79.553 50 79 50zM70 26c2.206 0 4 1.794 4 4v5H42v-5c0-1.538-0.586-2.937-1.54-4H70zM22 70v-5h8v5c0 2.206-1.794 4-4 4S22 72.206 22 70zM58 51v23H30.46c0.954-1.063 1.54-2.462 1.54-4V30c0-2.206 1.794-4 4-4s4 1.794 4 4v6c0 0.552 0.447 1 1 1h27v13h-9C58.447 50 58 50.448 58 51zM78 78H60V52h18V78zM42 51c-3.309 0-6 2.691-6 6 0 1.223 0.369 2.359 1 3.311V69c0 0.379 0.214 0.725 0.553 0.895 0.339 0.17 0.745 0.133 1.047-0.095l3.4-2.55 3.4 2.55c0.302 0.226 0.706 0.266 1.047 0.095C46.786 69.725 47 69.379 47 69v-8.689c0.631-0.951 1-2.088 1-3.311C48 53.691 45.309 51 42 51zM42 53c2.206 0 4 1.794 4 4s-1.794 4-4 4-4-1.794-4-4S39.794 53 42 53zM42.6 65.2c-0.355-0.267-0.844-0.267-1.199 0L39 67v-4.813C39.884 62.701 40.907 63 42 63s2.116-0.299 3-0.813V67L42.6 65.2zM63 60h12c0.553 0 1-0.448 1-1v-4c0-0.552-0.447-1-1-1H63c-0.553 0-1 0.448-1 1v4C62 59.552 62.447 60 63 60zM64 56h10v2H64V56zM63 68h4c0.553 0 1-0.448 1-1v-4c0-0.552-0.447-1-1-1h-4c-0.553 0-1 0.448-1 1v4C62 67.552 62.447 68 63 68zM64 64h2v2h-2V64zM75 62h-4c-0.553 0-1 0.448-1 1v4c0 0.552 0.447 1 1 1h4c0.553 0 1-0.448 1-1v-4C76 62.448 75.553 62 75 62zM74 66h-2v-2h2V66zM63 76h4c0.553 0 1-0.448 1-1v-4c0-0.552-0.447-1-1-1h-4c-0.553 0-1 0.448-1 1v4C62 75.552 62.447 76 63 76zM64 72h2v2h-2V72zM75 70h-4c-0.553 0-1 0.448-1 1v4c0 0.552 0.447 1 1 1h4c0.553 0 1-0.448 1-1v-4C76 70.448 75.553 70 75 70zM74 74h-2v-2h2V74z" fill="#ffffff" data-fill-palette-color="quaternary"></path></svg></g></svg></g><g><path d="M46.172 179.536V179.536C46.449 179.725 46.69 179.855 46.895 179.926 47.105 180.002 47.291 180.039 47.451 180.039 47.61 180.029 47.747 179.983 47.862 179.9 47.979 179.828 48.082 179.725 48.173 179.593V179.593C48.365 179.31 48.391 178.986 48.251 178.62 48.112 178.255 47.794 177.748 47.298 177.098V177.098C47.082 176.808 46.876 176.503 46.679 176.183 46.493 175.862 46.351 175.53 46.256 175.186 46.17 174.841 46.149 174.48 46.193 174.105 46.239 173.74 46.398 173.358 46.668 172.959V172.959C46.939 172.561 47.258 172.254 47.624 172.039 47.984 171.819 48.377 171.694 48.804 171.663 49.228 171.623 49.675 171.673 50.144 171.815 50.609 171.963 51.087 172.203 51.578 172.537V172.537C52.155 172.93 52.61 173.328 52.944 173.732 53.279 174.145 53.536 174.518 53.715 174.851V174.851L52.115 175.992C51.961 175.71 51.77 175.42 51.543 175.122 51.311 174.829 50.99 174.543 50.58 174.265V174.265C50.118 173.951 49.743 173.788 49.455 173.778 49.167 173.768 48.932 173.895 48.751 174.161V174.161C48.645 174.316 48.593 174.475 48.593 174.636 48.592 174.787 48.631 174.952 48.711 175.133 48.79 175.314 48.893 175.498 49.019 175.685 49.151 175.876 49.298 176.082 49.461 176.302V176.302C49.791 176.772 50.069 177.201 50.294 177.591 50.513 177.976 50.66 178.35 50.734 178.713 50.808 179.076 50.799 179.437 50.706 179.796 50.62 180.159 50.437 180.546 50.158 180.956V180.956C49.613 181.758 48.906 182.189 48.038 182.249 47.18 182.307 46.185 181.951 45.053 181.182V181.182C44.678 180.926 44.353 180.672 44.079 180.417 43.804 180.163 43.57 179.924 43.376 179.699 43.187 179.469 43.032 179.262 42.912 179.079 42.795 178.89 42.703 178.722 42.635 178.574V178.574L44.222 177.413C44.382 177.724 44.61 178.065 44.907 178.435 45.208 178.8 45.629 179.167 46.172 179.536ZM58.839 188.812L56.638 187.643C56.706 187.276 56.772 186.892 56.835 186.491 56.889 186.092 56.948 185.697 57.014 185.305V185.305L53.445 183.409C53.151 183.68 52.857 183.95 52.563 184.221 52.265 184.498 51.984 184.767 51.718 185.029V185.029L49.573 183.89C50.442 183.087 51.253 182.348 52.007 181.673 52.761 180.998 53.482 180.37 54.171 179.787 54.86 179.204 55.523 178.655 56.161 178.14 56.804 177.628 57.447 177.14 58.089 176.675V176.675L60.059 177.721C60.021 178.507 59.973 179.312 59.915 180.135 59.851 180.955 59.771 181.813 59.674 182.71 59.57 183.604 59.45 184.552 59.313 185.554 59.176 186.556 59.018 187.642 58.839 188.812ZM57.923 179.242V179.242C57.811 179.349 57.65 179.496 57.439 179.685 57.231 179.867 56.99 180.075 56.716 180.309 56.438 180.549 56.137 180.811 55.811 181.097 55.482 181.389 55.142 181.694 54.791 182.013V182.013L57.399 183.399C57.466 182.929 57.529 182.476 57.587 182.04 57.647 181.614 57.699 181.219 57.743 180.854 57.776 180.493 57.811 180.175 57.846 179.901 57.884 179.621 57.91 179.401 57.923 179.242ZM64.521 191.068L62.442 190.231C62.384 189.274 62.346 188.284 62.329 187.262 62.309 186.245 62.303 185.242 62.311 184.251 62.322 183.27 62.342 182.333 62.37 181.442 62.405 180.552 62.441 179.762 62.479 179.069V179.069L64.868 180.032C64.834 180.658 64.794 181.338 64.747 182.071 64.709 182.801 64.674 183.532 64.642 184.265 64.613 184.991 64.588 185.688 64.567 186.357 64.546 187.026 64.54 187.61 64.55 188.111V188.111C64.897 187.754 65.298 187.328 65.752 186.834 66.207 186.34 66.676 185.821 67.158 185.278 67.643 184.728 68.121 184.176 68.593 183.621 69.074 183.062 69.516 182.544 69.919 182.066V182.066L72.231 182.997C71.772 183.52 71.247 184.114 70.656 184.779 70.064 185.444 69.433 186.134 68.761 186.849 68.08 187.568 67.38 188.287 66.661 189.006 65.94 189.732 65.227 190.419 64.521 191.068ZM77.066 195.17L70.009 193.112 72.911 183.16 79.637 185.121 79.089 187.001 74.605 185.693 74.036 187.644 78.017 188.805 77.481 190.644 73.5 189.483 72.799 191.886 77.614 193.29ZM87.449 190.717V190.717C87.96 190.067 88.453 189.419 88.928 188.772 89.398 188.117 89.839 187.459 90.253 186.796V186.796L92.806 187.143C92.088 188.173 91.358 189.166 90.616 190.122 89.873 191.078 89.095 192.032 88.282 192.986V192.986L87.748 196.918 85.434 196.604 85.964 192.703C85.428 191.566 84.93 190.431 84.471 189.298 84.004 188.171 83.562 187.015 83.145 185.831V185.831L85.833 186.196C86.055 186.945 86.299 187.697 86.562 188.451 86.834 189.199 87.13 189.955 87.449 190.717ZM94.538 192.307V192.307C94.522 192.816 94.566 193.279 94.671 193.694 94.783 194.103 94.953 194.458 95.18 194.759 95.401 195.06 95.68 195.296 96.016 195.468 96.353 195.639 96.741 195.732 97.18 195.747V195.747C97.606 195.761 97.992 195.693 98.34 195.544 98.694 195.395 98.991 195.178 99.231 194.893 99.478 194.607 99.671 194.265 99.81 193.864 99.949 193.456 100.027 192.998 100.044 192.489V192.489C100.06 191.979 100.013 191.517 99.901 191.101 99.789 190.685 99.619 190.323 99.392 190.015 99.171 189.715 98.889 189.478 98.546 189.306 98.209 189.135 97.828 189.042 97.402 189.028V189.028C96.963 189.013 96.569 189.084 96.222 189.24 95.874 189.396 95.581 189.617 95.341 189.903 95.094 190.188 94.901 190.534 94.762 190.942 94.629 191.356 94.555 191.812 94.538 192.307ZM102.451 192.568V192.568C102.422 193.454 102.263 194.231 101.976 194.899 101.688 195.56 101.307 196.11 100.832 196.549 100.356 196.987 99.801 197.311 99.165 197.52 98.522 197.73 97.838 197.822 97.113 197.798V197.798C96.401 197.775 95.735 197.638 95.115 197.387 94.494 197.136 93.958 196.776 93.505 196.307 93.053 195.838 92.702 195.264 92.452 194.585 92.202 193.899 92.091 193.113 92.121 192.227V192.227C92.15 191.341 92.315 190.564 92.617 189.897 92.925 189.236 93.32 188.683 93.803 188.238 94.293 187.794 94.855 187.47 95.491 187.267 96.119 187.057 96.779 186.964 97.47 186.987V186.987C98.174 187.01 98.837 187.147 99.457 187.398 100.078 187.642 100.614 188.002 101.067 188.478 101.519 188.954 101.87 189.531 102.12 190.21 102.37 190.896 102.48 191.682 102.451 192.568ZM108.734 197.447V197.447C108.004 197.508 107.369 197.46 106.83 197.302 106.284 197.137 105.825 196.889 105.454 196.556 105.076 196.223 104.786 195.813 104.584 195.326 104.375 194.839 104.245 194.293 104.194 193.687V193.687L103.654 187.259 105.981 187.064 106.504 193.294C106.539 193.711 106.618 194.062 106.74 194.346 106.855 194.63 107.004 194.86 107.186 195.033 107.361 195.201 107.571 195.316 107.814 195.38 108.057 195.437 108.318 195.453 108.596 195.43V195.43C109.16 195.383 109.604 195.17 109.93 194.793 110.248 194.415 110.373 193.81 110.303 192.975V192.975L109.779 186.745 112.106 186.55 112.646 192.978C112.697 193.583 112.66 194.146 112.536 194.668 112.412 195.19 112.191 195.646 111.873 196.037 111.556 196.428 111.138 196.744 110.618 196.984 110.093 197.231 109.464 197.385 108.734 197.447ZM116.54 185.493V185.493C118.067 185.188 119.291 185.224 120.214 185.602 121.138 185.987 121.715 186.751 121.943 187.894V187.894C122.086 188.606 122.037 189.217 121.797 189.728 121.558 190.239 121.156 190.686 120.592 191.069V191.069C120.848 191.281 121.122 191.529 121.413 191.812 121.703 192.089 121.994 192.387 122.286 192.706 122.576 193.018 122.862 193.345 123.144 193.688 123.428 194.037 123.695 194.378 123.947 194.712V194.712L121.38 195.226C121.121 194.929 120.865 194.627 120.612 194.322 120.352 194.018 120.087 193.726 119.817 193.445 119.555 193.163 119.298 192.897 119.049 192.648 118.793 192.4 118.542 192.176 118.296 191.977V191.977L117.166 192.202 117.909 195.92 115.619 196.377 113.616 186.355C114.096 186.16 114.599 185.988 115.125 185.84 115.651 185.692 116.123 185.576 116.54 185.493ZM117.064 187.417V187.417C116.899 187.45 116.754 187.486 116.626 187.526 116.491 187.56 116.365 187.592 116.25 187.623V187.623L116.803 190.385 117.45 190.255C118.312 190.083 118.907 189.854 119.234 189.568 119.567 189.273 119.682 188.869 119.579 188.356V188.356C119.48 187.856 119.22 187.538 118.801 187.401 118.382 187.264 117.803 187.269 117.064 187.417ZM125.019 183.573L133.104 180.68 133.774 182.553 130.826 183.608 133.649 191.496 131.45 192.283 128.627 184.395 125.689 185.447ZM145.706 186.11L143.451 187.17C143.198 186.895 142.93 186.612 142.647 186.321 142.36 186.04 142.08 185.755 141.806 185.467V185.467L138.148 187.187C138.188 187.584 138.228 187.982 138.269 188.379 138.312 188.783 138.359 189.17 138.409 189.54V189.54L136.21 190.573C136.089 189.396 135.984 188.304 135.896 187.296 135.808 186.288 135.738 185.334 135.685 184.433 135.632 183.533 135.59 182.673 135.56 181.854 135.536 181.032 135.531 180.225 135.544 179.432V179.432L137.562 178.483C138.168 178.985 138.784 179.505 139.408 180.045 140.025 180.588 140.664 181.167 141.324 181.783 141.977 182.401 142.663 183.066 143.383 183.777 144.103 184.488 144.877 185.265 145.706 186.11ZM137.499 181.105V181.105C137.517 181.258 137.538 181.476 137.563 181.757 137.584 182.033 137.606 182.35 137.628 182.71 137.654 183.076 137.683 183.475 137.717 183.906 137.753 184.345 137.793 184.8 137.838 185.273V185.273L140.511 184.016C140.175 183.68 139.85 183.359 139.536 183.051 139.231 182.747 138.946 182.468 138.68 182.215 138.411 181.971 138.178 181.753 137.979 181.561 137.778 181.363 137.618 181.21 137.499 181.105ZM155.167 180.284L152.794 181.763C152.245 181.422 151.665 181.092 151.055 180.773 150.451 180.451 149.795 180.144 149.087 179.853V179.853C149.065 180.08 149.047 180.388 149.033 180.775 149.019 181.162 149.017 181.562 149.028 181.975 149.036 182.397 149.047 182.798 149.06 183.176 149.074 183.554 149.092 183.847 149.115 184.055V184.055L146.848 185.467C146.793 184.547 146.78 183.556 146.809 182.493 146.832 181.434 146.885 180.291 146.967 179.064V179.064L141.5 176.585 143.899 175.09 147.32 176.759 147.286 172.98 149.552 171.568 149.41 177.579C150.697 178.06 151.827 178.54 152.8 179.02 153.768 179.503 154.557 179.924 155.167 180.284Z" fill="#6b21a8" data-fill-palette-color="primary"></path><path d="M4.248 69.893V69.893C4.693 68.445 5.288 67.411 6.033 66.793 6.778 66.175 7.728 66.044 8.882 66.398V66.398C10.05 66.757 10.77 67.41 11.042 68.355 11.322 69.296 11.239 70.494 10.791 71.948V71.948L10.582 72.629 13.825 73.626 13.154 75.808 3.605 72.872C3.658 72.37 3.746 71.845 3.87 71.299 3.999 70.762 4.124 70.293 4.248 69.893ZM6.152 70.325V70.325C6.105 70.478 6.06 70.636 6.018 70.798 5.977 70.954 5.947 71.087 5.928 71.198V71.198L8.72 72.057 8.93 71.376C9.161 70.622 9.233 70.019 9.146 69.569 9.062 69.127 8.74 68.82 8.18 68.648V68.648C7.906 68.563 7.667 68.545 7.463 68.591 7.252 68.636 7.066 68.732 6.903 68.88 6.741 69.027 6.6 69.225 6.48 69.472 6.36 69.72 6.251 70.005 6.152 70.325ZM7.707 60.51V60.51C8.303 59.109 9.006 58.142 9.818 57.607 10.636 57.075 11.569 57.032 12.616 57.478V57.478C13.271 57.756 13.74 58.134 14.023 58.611 14.299 59.085 14.436 59.655 14.433 60.322V60.322C14.746 60.228 15.097 60.142 15.487 60.065 15.876 59.988 16.278 59.916 16.694 59.85 17.106 59.79 17.528 59.742 17.961 59.706 18.396 59.664 18.818 59.635 19.227 59.619V59.619L18.223 61.98C17.85 62.019 17.469 62.058 17.08 62.097 16.689 62.143 16.307 62.193 15.935 62.247 15.56 62.308 15.2 62.371 14.854 62.436 14.514 62.503 14.199 62.582 13.911 62.672V62.672L13.472 63.703 16.874 65.15 15.98 67.251 6.787 63.339C6.891 62.845 7.028 62.345 7.197 61.841 7.373 61.339 7.543 60.895 7.707 60.51ZM9.552 61.147V61.147C9.487 61.301 9.431 61.441 9.386 61.566 9.34 61.69 9.302 61.807 9.271 61.915V61.915L11.796 62.989 12.046 62.402C12.382 61.611 12.526 61.005 12.478 60.583 12.424 60.158 12.159 59.844 11.684 59.641V59.641C11.228 59.447 10.829 59.483 10.489 59.748 10.152 60.006 9.839 60.473 9.552 61.147ZM19.827 58.596L10.811 53.963 11.854 51.932 20.87 56.565ZM18.848 48.529V48.529C18.48 47.817 18.102 47.121 17.715 46.439 17.328 45.757 16.921 45.095 16.492 44.453V44.453L17.833 42.328C18.46 43.376 19.047 44.427 19.594 45.483 20.146 46.532 20.681 47.613 21.201 48.725V48.725L24.477 50.793 23.259 52.724 20.009 50.673C18.781 50.682 17.572 50.662 16.382 50.612 15.182 50.565 13.972 50.487 12.753 50.378V50.378L14.167 48.137C14.931 48.248 15.7 48.337 16.475 48.405 17.253 48.467 18.044 48.508 18.848 48.529ZM31.747 40.925L30.26 42.86C29.92 42.73 29.562 42.605 29.188 42.485 28.814 42.365 28.439 42.24 28.064 42.11V42.11L25.653 45.249C25.875 45.579 26.093 45.909 26.305 46.239 26.522 46.564 26.735 46.877 26.944 47.179V47.179L25.503 49.056C24.868 48.093 24.287 47.194 23.759 46.357 23.231 45.52 22.743 44.723 22.295 43.965 21.842 43.203 21.42 42.474 21.03 41.779 20.644 41.078 20.274 40.379 19.918 39.684V39.684L21.251 37.948C22.01 38.117 22.778 38.298 23.555 38.49 24.332 38.681 25.147 38.898 26.001 39.14 26.848 39.377 27.745 39.643 28.689 39.937 29.634 40.231 30.653 40.56 31.747 40.925ZM22.375 40.25V40.25C22.462 40.378 22.577 40.56 22.723 40.795 22.863 41.025 23.024 41.29 23.208 41.59 23.393 41.899 23.599 42.233 23.825 42.592 24.047 42.956 24.286 43.333 24.541 43.723V43.723L26.295 41.439C25.853 41.292 25.429 41.156 25.024 41.03 24.619 40.904 24.243 40.792 23.897 40.693 23.556 40.598 23.256 40.513 22.997 40.438 22.733 40.358 22.525 40.295 22.375 40.25ZM38.393 33.962L37.073 35.351C35.786 35.024 34.47 34.746 33.126 34.519 31.782 34.292 30.45 34.143 29.129 34.073V34.073L33.943 38.646 32.392 40.278 25.043 33.297 26.32 31.953C26.774 31.941 27.305 31.955 27.913 31.993 28.522 32.032 29.158 32.087 29.821 32.159 30.485 32.231 31.161 32.32 31.85 32.426 32.539 32.532 33.196 32.636 33.821 32.738V32.738L29.486 28.62 31.044 26.98ZM46.548 27.234L44.469 28.959C44.103 28.835 43.689 28.712 43.224 28.59 42.764 28.473 42.285 28.371 41.787 28.285 41.295 28.194 40.798 28.125 40.297 28.079 39.801 28.027 39.332 28.008 38.889 28.022V28.022L41.623 31.318 39.866 32.776 33.395 24.973 35.152 23.516 37.599 26.466C37.659 25.609 37.702 24.725 37.727 23.816 37.757 22.911 37.788 22.074 37.821 21.303V21.303L39.9 19.579C39.89 20.648 39.858 21.699 39.807 22.73 39.755 23.762 39.681 24.821 39.585 25.908V25.908C40.636 25.907 41.748 26.023 42.921 26.256 44.09 26.484 45.299 26.81 46.548 27.234ZM55.37 21.618L53.319 22.94C53.042 22.703 52.748 22.466 52.436 22.227 52.124 21.987 51.813 21.743 51.503 21.495V21.495L48.176 23.64C48.275 24.024 48.369 24.408 48.458 24.791 48.552 25.17 48.647 25.537 48.743 25.891V25.891L46.754 27.173C46.48 26.053 46.236 25.011 46.02 24.045 45.805 23.079 45.614 22.164 45.447 21.3 45.276 20.43 45.124 19.602 44.991 18.815 44.864 18.025 44.75 17.243 44.65 16.469V16.469L46.489 15.283C47.147 15.698 47.809 16.126 48.476 16.568 49.144 17.01 49.838 17.489 50.56 18.003 51.279 18.512 52.033 19.064 52.824 19.659 53.614 20.254 54.463 20.907 55.37 21.618ZM46.772 17.829V17.829C46.811 17.979 46.859 18.188 46.917 18.459 46.971 18.723 47.034 19.027 47.106 19.371 47.176 19.724 47.257 20.108 47.35 20.522 47.436 20.939 47.534 21.375 47.643 21.828V21.828L50.064 20.267C49.696 19.981 49.343 19.71 49.004 19.455 48.665 19.2 48.35 18.968 48.056 18.758 47.767 18.554 47.513 18.373 47.295 18.215 47.073 18.05 46.899 17.922 46.772 17.829ZM67.062 16.034L64.607 17.162C64.286 16.948 63.917 16.722 63.5 16.483 63.086 16.251 62.649 16.029 62.191 15.817 61.739 15.602 61.277 15.407 60.805 15.232 60.339 15.054 59.891 14.914 59.46 14.813V14.813L61.247 18.705 59.173 19.658 54.942 10.446 57.016 9.493 58.616 12.976C58.896 12.164 59.166 11.321 59.426 10.449 59.689 9.583 59.936 8.782 60.166 8.046V8.046L62.621 6.919C62.334 7.95 62.032 8.956 61.715 9.939 61.399 10.922 61.053 11.926 60.679 12.951V12.951C61.694 13.222 62.739 13.622 63.811 14.151 64.881 14.673 65.964 15.301 67.062 16.034ZM71.777 14.747V14.747C71.102 14.974 70.487 15.074 69.933 15.048 69.379 15.021 68.886 14.892 68.455 14.662 68.024 14.432 67.654 14.111 67.346 13.699 67.035 13.28 66.785 12.79 66.595 12.228V12.228L64.581 6.254 66.745 5.525 68.698 11.32C68.83 11.71 68.984 12.026 69.162 12.269 69.339 12.511 69.533 12.692 69.743 12.813 69.953 12.934 70.18 12.994 70.423 12.993 70.666 12.992 70.916 12.948 71.174 12.861V12.861C71.703 12.683 72.075 12.377 72.29 11.943 72.512 11.508 72.492 10.903 72.231 10.129V10.129L70.277 4.334 72.44 3.604 74.454 9.578C74.644 10.14 74.739 10.683 74.738 11.206 74.74 11.736 74.636 12.224 74.425 12.671 74.221 13.116 73.899 13.515 73.459 13.87 73.025 14.222 72.465 14.515 71.777 14.747ZM75.867 2.849L78.002 2.422C78.237 2.702 78.513 3.053 78.832 3.473 79.152 3.893 79.485 4.35 79.833 4.843 80.186 5.327 80.54 5.83 80.893 6.35 81.245 6.863 81.574 7.349 81.879 7.808V7.808C81.991 7.266 82.111 6.69 82.238 6.081 82.364 5.464 82.497 4.865 82.636 4.281 82.767 3.693 82.899 3.143 83.032 2.632 83.165 2.122 83.285 1.692 83.393 1.342V1.342L85.426 0.935C85.654 1.573 85.891 2.295 86.137 3.1 86.383 3.898 86.624 4.732 86.863 5.603 87.103 6.481 87.339 7.359 87.572 8.238 87.804 9.11 88.015 9.936 88.207 10.716V10.716L86.03 11.152C85.81 10.193 85.562 9.149 85.286 8.023 85.009 6.889 84.707 5.753 84.38 4.616V4.616C84.289 5.054 84.187 5.537 84.072 6.066 83.958 6.601 83.848 7.132 83.74 7.66 83.632 8.187 83.526 8.692 83.424 9.175 83.321 9.659 83.236 10.071 83.169 10.412V10.412L81.598 10.726C81.405 10.437 81.168 10.09 80.888 9.683 80.607 9.276 80.315 8.851 80.012 8.406 79.71 7.961 79.403 7.513 79.092 7.063 78.783 6.619 78.502 6.213 78.25 5.843V5.843C78.386 7.019 78.544 8.184 78.725 9.336 78.905 10.482 79.077 11.541 79.243 12.511V12.511L77.066 12.947C76.943 12.153 76.82 11.309 76.698 10.415 76.575 9.514 76.455 8.613 76.338 7.71 76.223 6.815 76.125 5.952 76.044 5.121 75.962 4.283 75.903 3.526 75.867 2.85ZM98.946 10.081L96.511 10.235C96.385 9.893 96.244 9.541 96.088 9.18 95.933 8.819 95.78 8.455 95.631 8.086V8.086L91.681 8.335C91.579 8.719 91.473 9.1 91.364 9.478 91.262 9.855 91.166 10.221 91.077 10.577V10.577L88.715 10.725C89.023 9.615 89.318 8.585 89.601 7.637 89.884 6.689 90.164 5.797 90.44 4.961 90.716 4.118 90.987 3.321 91.255 2.57 91.529 1.818 91.812 1.08 92.102 0.355V0.355L94.286 0.218C94.658 0.901 95.027 1.598 95.393 2.31 95.76 3.021 96.133 3.777 96.512 4.579 96.891 5.374 97.28 6.223 97.68 7.129 98.08 8.034 98.502 9.018 98.946 10.081ZM93.291 2.578V2.578C93.251 2.728 93.191 2.934 93.11 3.198 93.028 3.455 92.935 3.751 92.83 4.087 92.718 4.43 92.602 4.804 92.481 5.21 92.352 5.617 92.225 6.045 92.1 6.494V6.494L94.974 6.313C94.793 5.883 94.617 5.475 94.446 5.087 94.274 4.699 94.112 4.342 93.958 4.016 93.805 3.697 93.672 3.415 93.559 3.17 93.445 2.918 93.356 2.721 93.291 2.578ZM103.235 0.014V0.014C104.755 0.074 105.91 0.389 106.698 0.958 107.485 1.534 107.856 2.391 107.811 3.528V3.528C107.783 4.239 107.596 4.812 107.251 5.245 106.905 5.672 106.421 6.002 105.796 6.236V6.236C105.996 6.495 106.201 6.793 106.411 7.13 106.621 7.467 106.831 7.817 107.04 8.182 107.242 8.546 107.437 8.924 107.624 9.316 107.818 9.708 107.995 10.092 108.154 10.469V10.469L105.591 10.367C105.422 10.032 105.251 9.69 105.076 9.341 104.894 8.991 104.712 8.652 104.529 8.323 104.34 7.994 104.153 7.68 103.97 7.379 103.786 7.085 103.6 6.819 103.414 6.581V6.581L102.295 6.537 102.148 10.23 99.867 10.14 100.263 0.158C100.762 0.08 101.278 0.03 101.81 0.009 102.341-0.004 102.816-0.003 103.235 0.014ZM103.293 1.965V1.965C103.126 1.959 102.976 1.956 102.843 1.958 102.71 1.96 102.588 1.965 102.476 1.975V1.975L102.367 4.716 103.005 4.741C103.863 4.776 104.481 4.695 104.859 4.501 105.238 4.299 105.437 3.94 105.457 3.424V3.424C105.477 2.929 105.303 2.569 104.934 2.345 104.573 2.121 104.026 1.994 103.293 1.965ZM109.324 10.666L110.457 0.593 112.726 0.848 111.593 10.922ZM116.86 9.119V9.119C116.948 8.759 117.079 8.442 117.253 8.169 117.435 7.897 117.64 7.659 117.869 7.456 118.103 7.262 118.362 7.099 118.645 6.966 118.921 6.839 119.201 6.735 119.487 6.654V6.654C119.329 6.328 119.197 5.984 119.092 5.62 118.993 5.258 118.99 4.888 119.082 4.508V4.508C119.286 3.673 119.693 3.094 120.304 2.768 120.914 2.443 121.661 2.387 122.543 2.602V2.602C122.984 2.709 123.356 2.861 123.66 3.057 123.963 3.26 124.202 3.491 124.376 3.749 124.55 4.007 124.663 4.282 124.714 4.575 124.756 4.873 124.739 5.177 124.663 5.489V5.489C124.521 6.073 124.233 6.549 123.798 6.917 123.364 7.285 122.858 7.561 122.282 7.744V7.744L123.483 9.718C123.617 9.549 123.76 9.333 123.911 9.068 124.063 8.796 124.176 8.554 124.249 8.342V8.342L125.955 8.994C125.89 9.172 125.808 9.361 125.709 9.559 125.609 9.765 125.499 9.968 125.378 10.168 125.25 10.367 125.116 10.565 124.975 10.76 124.834 10.956 124.687 11.132 124.534 11.289V11.289C124.757 11.702 124.961 12.147 125.147 12.623 125.341 13.095 125.493 13.559 125.605 14.017V14.017L123.427 13.487C123.382 13.347 123.314 13.169 123.223 12.953 123.141 12.731 123.047 12.54 122.943 12.378V12.378C122.489 12.591 121.986 12.738 121.435 12.819 120.883 12.9 120.295 12.865 119.671 12.713V12.713C119.006 12.551 118.474 12.332 118.075 12.055 117.667 11.783 117.359 11.482 117.152 11.151 116.944 10.827 116.825 10.489 116.796 10.137 116.761 9.777 116.783 9.437 116.86 9.119ZM118.886 9.385V9.385C118.852 9.528 118.843 9.68 118.861 9.843 118.884 10.014 118.945 10.179 119.042 10.339 119.141 10.493 119.279 10.634 119.456 10.764 119.633 10.893 119.864 10.992 120.149 11.062V11.062C120.549 11.159 120.911 11.193 121.234 11.164 121.559 11.128 121.84 11.05 122.078 10.928V10.928L120.367 8.086C120.215 8.121 120.062 8.17 119.91 8.234 119.758 8.297 119.616 8.381 119.483 8.485 119.35 8.589 119.229 8.715 119.122 8.861 119.016 9 118.938 9.175 118.886 9.385ZM122.838 5.153V5.153C122.891 4.936 122.866 4.725 122.765 4.521 122.664 4.316 122.447 4.174 122.115 4.093V4.093C121.816 4.02 121.56 4.055 121.346 4.197 121.139 4.34 120.999 4.558 120.928 4.849V4.849C120.867 5.1 120.88 5.359 120.966 5.624 121.052 5.889 121.182 6.154 121.355 6.419V6.419C121.701 6.324 122.012 6.184 122.287 5.999 122.562 5.815 122.745 5.533 122.838 5.153ZM138.128 18.957L135.872 18.028C135.908 17.665 135.935 17.288 135.953 16.895 135.971 16.502 135.994 16.108 136.021 15.711V15.711L132.361 14.205C132.101 14.505 131.84 14.801 131.576 15.093 131.319 15.387 131.072 15.675 130.836 15.955V15.955L128.648 15.054C129.411 14.19 130.128 13.395 130.797 12.666 131.467 11.938 132.109 11.258 132.724 10.628 133.341 9.991 133.934 9.394 134.503 8.835 135.079 8.28 135.657 7.74 136.235 7.215V7.215L138.259 8.049C138.294 8.826 138.32 9.614 138.338 10.414 138.356 11.214 138.36 12.058 138.35 12.944 138.342 13.824 138.32 14.759 138.283 15.748 138.245 16.737 138.194 17.806 138.128 18.957ZM136.33 9.735V9.735C136.229 9.852 136.084 10.011 135.896 10.213 135.71 10.408 135.496 10.633 135.255 10.889 135.005 11.148 134.736 11.434 134.449 11.746 134.155 12.056 133.854 12.384 133.544 12.733V12.733L136.207 13.829C136.233 13.364 136.253 12.919 136.269 12.496 136.285 12.072 136.296 11.68 136.301 11.319 136.303 10.965 136.307 10.654 136.312 10.384 136.32 10.108 136.326 9.892 136.33 9.735ZM142.445 19.307V19.307C142.728 19.458 142.975 19.559 143.186 19.608 143.397 19.658 143.579 19.672 143.733 19.651 143.886 19.631 144.014 19.576 144.117 19.489 144.219 19.401 144.308 19.286 144.384 19.145V19.145C144.539 18.855 144.53 18.538 144.359 18.193 144.19 17.857 143.829 17.399 143.277 16.818V16.818C143.037 16.556 142.809 16.279 142.592 15.989 142.369 15.696 142.197 15.389 142.074 15.071 141.949 14.742 141.89 14.394 141.897 14.026 141.904 13.657 142.018 13.267 142.239 12.854V12.854C142.459 12.442 142.739 12.112 143.076 11.866 143.405 11.622 143.773 11.459 144.182 11.376 144.59 11.294 145.03 11.3 145.502 11.394 145.968 11.485 146.457 11.667 146.968 11.94V11.94C147.565 12.26 148.05 12.603 148.424 12.969 148.792 13.332 149.076 13.666 149.277 13.972V13.972L147.846 15.249C147.669 14.988 147.454 14.723 147.203 14.453 146.948 14.19 146.608 13.945 146.183 13.718V13.718C145.697 13.458 145.313 13.339 145.031 13.363 144.749 13.386 144.536 13.533 144.391 13.804V13.804C144.302 13.97 144.268 14.13 144.289 14.284 144.303 14.434 144.357 14.593 144.449 14.761 144.541 14.929 144.661 15.097 144.81 15.263 144.955 15.436 145.12 15.623 145.305 15.825V15.825C145.674 16.244 145.987 16.629 146.243 16.98 146.499 17.331 146.679 17.681 146.785 18.03 146.894 18.374 146.924 18.726 146.873 19.087 146.823 19.448 146.682 19.844 146.452 20.275V20.275C146.007 21.106 145.369 21.596 144.537 21.744 143.705 21.893 142.701 21.653 141.526 21.024V21.024C141.126 20.81 140.782 20.594 140.494 20.377 140.2 20.157 139.949 19.947 139.739 19.747 139.535 19.551 139.365 19.365 139.229 19.19 139.09 19.02 138.98 18.87 138.9 18.74V18.74L140.322 17.435C140.508 17.724 140.767 18.033 141.098 18.361 141.429 18.688 141.878 19.004 142.445 19.307ZM149.576 23.576V23.576C149.844 23.753 150.081 23.875 150.286 23.944 150.492 24.012 150.672 24.043 150.827 24.037 150.982 24.03 151.114 23.988 151.224 23.909 151.334 23.831 151.433 23.725 151.522 23.591V23.591C151.702 23.317 151.723 23 151.583 22.641 151.446 22.291 151.128 21.802 150.631 21.174V21.174C150.416 20.891 150.214 20.595 150.025 20.286 149.829 19.973 149.685 19.653 149.592 19.324 149.497 18.986 149.47 18.633 149.511 18.267 149.551 17.901 149.7 17.523 149.957 17.132V17.132C150.215 16.741 150.523 16.438 150.882 16.223 151.231 16.01 151.612 15.881 152.027 15.836 152.441 15.792 152.879 15.837 153.34 15.974 153.796 16.107 154.266 16.333 154.75 16.652V16.652C155.315 17.024 155.768 17.41 156.107 17.809 156.44 18.204 156.693 18.562 156.865 18.885V18.885L155.324 20.026C155.171 19.75 154.982 19.467 154.755 19.176 154.525 18.89 154.209 18.615 153.807 18.35V18.35C153.346 18.047 152.974 17.894 152.692 17.892 152.409 17.89 152.183 18.017 152.014 18.273V18.273C151.911 18.431 151.862 18.587 151.869 18.742 151.87 18.893 151.908 19.056 151.985 19.232 152.061 19.408 152.166 19.585 152.299 19.765 152.428 19.95 152.575 20.151 152.741 20.369V20.369C153.071 20.82 153.347 21.232 153.57 21.605 153.793 21.977 153.941 22.342 154.014 22.7 154.092 23.052 154.089 23.405 154.006 23.76 153.923 24.115 153.747 24.496 153.478 24.905V24.905C152.96 25.692 152.28 26.121 151.438 26.194 150.596 26.267 149.618 25.936 148.505 25.203V25.203C148.126 24.953 147.803 24.707 147.536 24.465 147.264 24.219 147.032 23.987 146.841 23.769 146.656 23.555 146.504 23.354 146.384 23.167 146.261 22.986 146.166 22.827 146.097 22.69V22.69L147.633 21.519C147.791 21.824 148.021 22.155 148.321 22.512 148.621 22.868 149.039 23.223 149.576 23.576ZM157.694 25.384V25.384C157.375 25.772 157.135 26.157 156.974 26.54 156.818 26.927 156.736 27.302 156.726 27.665 156.722 28.033 156.799 28.385 156.956 28.722 157.112 29.049 157.357 29.35 157.691 29.625V29.625C158.015 29.891 158.354 30.071 158.711 30.165 159.072 30.254 159.432 30.261 159.792 30.186 160.151 30.111 160.504 29.958 160.848 29.726 161.198 29.499 161.532 29.191 161.852 28.803V28.803C162.166 28.42 162.404 28.032 162.564 27.639 162.73 27.251 162.814 26.874 162.818 26.506 162.822 26.139 162.746 25.787 162.589 25.45 162.427 25.118 162.185 24.82 161.862 24.553V24.553C161.527 24.279 161.182 24.099 160.827 24.014 160.466 23.926 160.106 23.919 159.746 23.993 159.387 24.078 159.033 24.234 158.683 24.461 158.334 24.699 158.005 25.006 157.694 25.384ZM163.671 30.299V30.299C163.117 30.973 162.532 31.482 161.915 31.824 161.299 32.167 160.674 32.367 160.04 32.424 159.415 32.48 158.792 32.397 158.17 32.174 157.549 31.962 156.964 31.63 156.414 31.178V31.178C155.88 30.739 155.449 30.235 155.121 29.667 154.788 29.104 154.584 28.506 154.507 27.874 154.435 27.236 154.508 26.582 154.725 25.911 154.937 25.236 155.32 24.561 155.875 23.887V23.887C156.424 23.218 157.013 22.717 157.64 22.383 158.272 22.044 158.907 21.848 159.547 21.796 160.192 21.748 160.82 21.83 161.431 22.044 162.042 22.257 162.609 22.579 163.132 23.009V23.009C163.666 23.448 164.099 23.949 164.432 24.511 164.764 25.074 164.966 25.674 165.039 26.312 165.105 26.945 165.03 27.602 164.814 28.283 164.602 28.959 164.221 29.631 163.671 30.299ZM164.487 38.762V38.762C163.343 37.576 162.803 36.352 162.865 35.089 162.928 33.836 163.567 32.623 164.783 31.45V31.45C165.386 30.869 166.016 30.446 166.672 30.181 167.324 29.912 167.973 29.785 168.619 29.802 169.266 29.819 169.893 29.971 170.5 30.258 171.107 30.556 171.667 30.971 172.18 31.503V31.503C172.481 31.815 172.73 32.118 172.927 32.413 173.124 32.708 173.284 32.98 173.408 33.229 173.532 33.478 173.624 33.695 173.685 33.878 173.741 34.067 173.778 34.206 173.796 34.295V34.295L172.011 35.1C171.919 34.762 171.77 34.402 171.564 34.018 171.364 33.639 171.082 33.261 170.719 32.884V32.884C170.471 32.628 170.189 32.42 169.871 32.261 169.553 32.102 169.211 32.02 168.846 32.013 168.481 32.006 168.094 32.088 167.686 32.259 167.288 32.429 166.878 32.718 166.456 33.125V33.125C166.119 33.45 165.841 33.79 165.623 34.147 165.399 34.498 165.262 34.858 165.21 35.228 165.159 35.597 165.202 35.973 165.338 36.356 165.469 36.743 165.719 37.128 166.087 37.51V37.51C166.315 37.746 166.536 37.945 166.75 38.107 166.96 38.274 167.155 38.411 167.335 38.518 167.516 38.625 167.687 38.712 167.849 38.779 168.001 38.846 168.143 38.903 168.275 38.949V38.949L167.392 40.674C167.029 40.578 166.588 40.373 166.071 40.057 165.548 39.747 165.02 39.315 164.487 38.762ZM167.735 42.006L175.497 35.487 176.965 37.235 169.203 43.754ZM175.618 52.947L174.227 50.942C174.455 50.657 174.682 50.355 174.911 50.035 175.139 49.715 175.373 49.396 175.611 49.078V49.078L173.355 45.825C172.974 45.937 172.593 46.044 172.214 46.146 171.838 46.253 171.475 46.36 171.125 46.468V46.468L169.776 44.523C170.886 44.212 171.92 43.933 172.878 43.685 173.836 43.437 174.744 43.215 175.602 43.019 176.466 42.819 177.288 42.64 178.07 42.48 178.855 42.326 179.633 42.186 180.403 42.06V42.06L181.651 43.858C181.258 44.53 180.852 45.206 180.433 45.888 180.013 46.569 179.559 47.28 179.069 48.019 178.584 48.754 178.058 49.527 177.49 50.337 176.922 51.147 176.298 52.017 175.618 52.948ZM179.116 44.227V44.227C178.967 44.27 178.759 44.326 178.491 44.392 178.229 44.455 177.927 44.529 177.586 44.612 177.235 44.694 176.854 44.788 176.444 44.895 176.029 44.995 175.597 45.108 175.148 45.232V45.232L176.789 47.599C177.063 47.222 177.322 46.86 177.565 46.513 177.809 46.165 178.031 45.842 178.23 45.542 178.424 45.246 178.597 44.986 178.748 44.763 178.904 44.535 179.027 44.357 179.116 44.227ZM183.83 47.013L187.974 54.318 186.28 55.279 184.771 52.62 177.649 56.66 176.522 54.675 183.645 50.634 182.136 47.975ZM182.573 66.884L179.603 60.343 188.832 56.151 191.66 62.378 189.915 63.17 188.031 59.022 186.22 59.845 187.895 63.535 186.189 64.31 184.513 60.62 182.291 61.629 184.318 66.091ZM185.493 70.193V70.193C185.597 70.497 185.71 70.739 185.83 70.919 185.951 71.099 186.075 71.234 186.201 71.323 186.328 71.413 186.459 71.46 186.593 71.466 186.728 71.471 186.871 71.448 187.023 71.396V71.396C187.334 71.289 187.544 71.051 187.653 70.682 187.758 70.321 187.806 69.74 187.797 68.939V68.939C187.801 68.583 187.822 68.225 187.861 67.865 187.898 67.498 187.98 67.156 188.108 66.84 188.239 66.514 188.433 66.219 188.69 65.954 188.946 65.689 189.295 65.481 189.737 65.329V65.329C190.18 65.178 190.609 65.126 191.024 65.176 191.431 65.221 191.812 65.353 192.167 65.57 192.522 65.788 192.84 66.092 193.122 66.483 193.401 66.867 193.634 67.333 193.822 67.881V67.881C194.042 68.522 194.164 69.104 194.188 69.627 194.21 70.143 194.19 70.581 194.129 70.942V70.942L192.212 70.902C192.26 70.59 192.283 70.25 192.282 69.881 192.275 69.515 192.193 69.104 192.037 68.648V68.648C191.858 68.126 191.658 67.778 191.435 67.603 191.213 67.428 190.957 67.391 190.666 67.49V67.49C190.488 67.552 190.354 67.645 190.265 67.772 190.173 67.892 190.103 68.045 190.056 68.231 190.009 68.417 189.984 68.621 189.979 68.844 189.967 69.069 189.961 69.319 189.959 69.593V69.593C189.943 70.151 189.91 70.646 189.859 71.077 189.807 71.508 189.701 71.888 189.54 72.216 189.386 72.541 189.168 72.819 188.885 73.049 188.602 73.279 188.229 73.473 187.767 73.631V73.631C186.876 73.937 186.075 73.861 185.364 73.403 184.654 72.946 184.083 72.086 183.65 70.825V70.825C183.503 70.395 183.398 70.003 183.336 69.648 183.271 69.287 183.23 68.962 183.212 68.672 183.196 68.39 183.198 68.138 183.219 67.917 183.232 67.699 183.254 67.514 183.284 67.364V67.364L185.214 67.377C185.153 67.716 185.132 68.118 185.152 68.583 185.171 69.049 185.285 69.586 185.493 70.193Z" fill="#6b21a8" data-fill-palette-color="primary"></path><path d="M4.895 100.036c0-0.656 0.532-1.189 1.188-1.189 0.656 0 1.189 0.532 1.189 1.189 0 0.656-0.532 1.189-1.189 1.189-0.656 0-1.189-0.532-1.188-1.189zM191.319 100.036c0-0.656 0.532-1.189 1.189-1.189 0.656 0 1.189 0.532 1.189 1.189 0 0.656-0.532 1.189-1.189 1.189-0.656 0-1.189-0.532-1.189-1.189z" fill="#6b21a8" data-fill-palette-color="primary"></path></g></svg></g></svg></g></svg></g></svg></g></svg></g></svg></g><defs></defs></svg><rect width="320" height="360" fill="none" stroke="none" visibility="hidden"></rect></g></svg></g></svg>