<svg xmlns="http://www.w3.org/2000/svg" version="1.1" xmlns:xlink="http://www.w3.org/1999/xlink" xmlns:svgjs="http://svgjs.dev/svgjs" width="128" height="128" viewBox="0 0 128 128"><g transform="matrix(0.44782608695652176,0,0,0.44782608695652176,35.33913639624347,12.5)"><svg viewBox="0 0 125 225" data-background-color="#f3e8ff" preserveAspectRatio="xMidYMid meet" height="230" width="128" xmlns="http://www.w3.org/2000/svg" xmlns:xlink="http://www.w3.org/1999/xlink"><g id="tight-bounds" transform="matrix(1,0,0,1,0.000012999999995599865,0)"><svg viewBox="0 0 125 225" height="225" width="125"><g><svg></svg></g><g><svg viewBox="0 0 125 225" height="225" width="125"><g><path transform="translate(-3.63896,46.35326) scale(0.15551,0.15551)" d="M827.2 486c-0.2-21.2-13.6-38-13.8-59.2-0.1-21.2 13.1-46.8 12.9-68-6.7-20.1-24.7-31.9-31.4-52-6.7-20.1-2.1-48.6-8.7-68.7-12.6-17.1-33.4-22.7-45.9-39.7-12.6-17.1-17-45.6-29.5-62.6-17.2-12.3-38.7-11.3-56-23.6-17.2-12.3-30.2-38.1-47.5-50.4-20.2-6.4-40.3 1.3-60.5-5.2-20.2-6.4-40.5-26.9-60.7-33.3-21.2 0.2-38 13.6-59.2 13.8-21.2 0.1-46.8-13.1-68-12.9-20.1 6.7-31.9 24.7-52 31.4-20.1 6.7-48.6 2.1-68.7 8.8-17.1 12.6-22.7 33.4-39.7 45.9-17.1 12.6-45.6 17-62.6 29.6-12.3 17.2-11.3 38.7-23.6 56-12.3 17.2-38.1 30.2-50.4 47.5-6.4 20.2 1.2 40.3-5.2 60.5-6.4 20.2-26.9 40.5-33.3 60.7 0.1 21.2 13.6 38 13.8 59.2 0.1 21.2-13.1 46.8-12.9 68 6.7 20.1 24.7 31.9 31.4 52 6.7 20.1 2.1 48.6 8.8 68.7 12.6 17.1 33.4 22.7 45.9 39.8 12.6 17.1 17 45.6 29.5 62.6 17.2 12.3 38.7 11.3 56 23.6 17.2 12.3 30.2 38.1 47.5 50.4 20.2 6.4 40.3-1.2 60.5 5.2 20.2 6.4 40.5 26.9 60.7 33.3 21.2-0.2 38-13.6 59.2-13.8 21.2-0.1 46.8 13.1 68 12.9 20.1-6.7 31.9-24.7 52-31.4 20.1-6.7 48.6-2.1 68.7-8.8 17.1-12.6 22.7-33.4 39.8-45.9 17.1-12.6 45.6-17 62.6-29.5 12.3-17.2 11.3-38.7 23.6-56 12.3-17.2 38.1-30.2 50.4-47.5 6.4-20.2-1.2-40.3 5.2-60.5 6.2-20.4 26.7-40.7 33.1-60.9zM792 544.4c-9.1 17.9-31.4 33.8-40.6 51.7-9.1 17.9-5.1 37.9-14.2 55.8-14.2 14.2-40.3 22.4-54.6 36.6-14.2 14.2-16.5 34.5-30.8 48.7-17.9 9.1-45.3 8.8-63.2 18-17.9 9.1-26.4 27.7-44.3 36.8-19.9 3.1-45.8-5.6-65.7-2.5-19.9 3.1-33.7 18.2-53.5 21.3-19.9-3.1-41.8-19.5-61.7-22.6-19.9-3.2-37.6 6.9-57.5 3.7-17.9-9.1-33.8-31.5-51.7-40.6-17.9-9.1-37.9-5.1-55.9-14.2-14.2-14.2-22.4-40.3-36.6-54.6-14.2-14.2-34.5-16.6-48.7-30.8-9.1-17.9-8.8-45.3-18-63.2-9.1-17.9-27.7-26.4-36.8-44.3-3.1-19.9 5.6-45.8 2.5-65.7-3.2-19.9-18.2-33.7-21.3-53.5 3.2-19.9 19.5-41.8 22.6-61.7 3.1-19.9-6.9-37.6-3.7-57.5 9.1-17.9 31.5-33.8 40.6-51.7 9.1-17.9 5.1-37.9 14.2-55.9 14.2-14.2 40.3-22.4 54.6-36.6 14.2-14.2 16.6-34.5 30.8-48.7 17.9-9.1 45.3-8.8 63.2-18 17.9-9.1 26.4-27.7 44.3-36.8 19.9-3.1 45.8 5.6 65.7 2.5 19.9-3.1 33.7-18.2 53.5-21.3 19.9 3.1 41.8 19.5 61.7 22.6 19.9 3.2 37.6-6.9 57.5-3.7 17.9 9.1 33.8 31.5 51.7 40.6 17.9 9.1 37.9 5.1 55.9 14.2 14.2 14.2 22.4 40.3 36.6 54.6 14.2 14.2 34.5 16.6 48.7 30.8 9.1 17.9 8.8 45.3 18 63.2 9.1 17.9 27.7 26.4 36.8 44.3 3.2 19.9-5.6 45.8-2.5 65.7 3.1 19.9 18.2 33.7 21.3 53.5-3.1 19.9-19.5 41.8-22.6 61.7-3.1 19.9 6.9 37.7 3.7 57.6z" fill="#6b21a8" fill-rule="nonzero" stroke="none" stroke-width="1" stroke-linecap="butt" stroke-linejoin="miter" stroke-miterlimit="10" stroke-dasharray="" stroke-dashoffset="0" font-family="none" font-weight="none" font-size="none" text-anchor="none" style="mix-blend-mode: normal" data-fill-palette-color="tertiary"></path></g><g transform="matrix(1,0,0,1,45.790825,96.90477)"><svg viewBox="0 0 33.418350000000004 31.190460000000005" height="31.190460000000005" width="33.418350000000004"><g><svg viewBox="0 0 33.418350000000004 31.190460000000005" height="31.190460000000005" width="33.418350000000004"><g><svg viewBox="0 0 33.418350000000004 31.190460000000005" height="31.190460000000005" width="33.418350000000004"><g id="textblocktransform"><svg viewBox="0 0 33.418350000000004 31.190460000000005" height="31.190460000000005" width="33.418350000000004" id="textblock"><g><svg viewBox="0 0 33.418350000000004 31.190460000000005" height="31.190460000000005" width="33.418350000000004"><g><svg viewBox="0 0 33.418350000000004 31.190460000000005" height="31.190460000000005" width="33.418350000000004"><g><svg xmlns="http://www.w3.org/2000/svg" xmlns:xlink="http://www.w3.org/1999/xlink" version="1.1" x="0" y="0" viewBox="20 24 60 56" enable-background="new 0 0 100 100" xml:space="preserve" height="31.190460000000005" width="33.418350000000004" class="icon-icon-0" data-fill-palette-color="accent" id="icon-0"><path d="M79 50h-9V37h5c0.553 0 1-0.448 1-1v-6c0-3.309-2.691-6-6-6H36c-3.309 0-6 2.691-6 6v33h-9c-0.553 0-1 0.448-1 1v6c0 3.309 2.691 6 6 6h32v3c0 0.552 0.447 1 1 1h20c0.553 0 1-0.448 1-1V51C80 50.448 79.553 50 79 50zM70 26c2.206 0 4 1.794 4 4v5H42v-5c0-1.538-0.586-2.937-1.54-4H70zM22 70v-5h8v5c0 2.206-1.794 4-4 4S22 72.206 22 70zM58 51v23H30.46c0.954-1.063 1.54-2.462 1.54-4V30c0-2.206 1.794-4 4-4s4 1.794 4 4v6c0 0.552 0.447 1 1 1h27v13h-9C58.447 50 58 50.448 58 51zM78 78H60V52h18V78zM42 51c-3.309 0-6 2.691-6 6 0 1.223 0.369 2.359 1 3.311V69c0 0.379 0.214 0.725 0.553 0.895 0.339 0.17 0.745 0.133 1.047-0.095l3.4-2.55 3.4 2.55c0.302 0.226 0.706 0.266 1.047 0.095C46.786 69.725 47 69.379 47 69v-8.689c0.631-0.951 1-2.088 1-3.311C48 53.691 45.309 51 42 51zM42 53c2.206 0 4 1.794 4 4s-1.794 4-4 4-4-1.794-4-4S39.794 53 42 53zM42.6 65.2c-0.355-0.267-0.844-0.267-1.199 0L39 67v-4.813C39.884 62.701 40.907 63 42 63s2.116-0.299 3-0.813V67L42.6 65.2zM63 60h12c0.553 0 1-0.448 1-1v-4c0-0.552-0.447-1-1-1H63c-0.553 0-1 0.448-1 1v4C62 59.552 62.447 60 63 60zM64 56h10v2H64V56zM63 68h4c0.553 0 1-0.448 1-1v-4c0-0.552-0.447-1-1-1h-4c-0.553 0-1 0.448-1 1v4C62 67.552 62.447 68 63 68zM64 64h2v2h-2V64zM75 62h-4c-0.553 0-1 0.448-1 1v4c0 0.552 0.447 1 1 1h4c0.553 0 1-0.448 1-1v-4C76 62.448 75.553 62 75 62zM74 66h-2v-2h2V66zM63 76h4c0.553 0 1-0.448 1-1v-4c0-0.552-0.447-1-1-1h-4c-0.553 0-1 0.448-1 1v4C62 75.552 62.447 76 63 76zM64 72h2v2h-2V72zM75 70h-4c-0.553 0-1 0.448-1 1v4c0 0.552 0.447 1 1 1h4c0.553 0 1-0.448 1-1v-4C76 70.448 75.553 70 75 70zM74 74h-2v-2h2V74z" fill="#5e3fdb" data-fill-palette-color="accent"></path></svg></g></svg></g></svg></g></svg></g></svg></g></svg></g></svg></g></svg></g><defs></defs></svg><rect width="125" height="225" fill="none" stroke="none" visibility="hidden"></rect></g></svg></g></svg>